<svg xmlns="http://www.w3.org/2000/svg" viewBox="0 0 400 250">
  <rect width="400" height="250" rx="8" fill="#1a1a2e"/>
  <g transform="translate(200,95)">
    <rect x="-30" y="-25" width="60" height="50" rx="4" fill="none" stroke="#f59e0b" stroke-width="2"/>
    <line x1="-20" y1="-12" x2="20" y2="-12" stroke="#f59e0b" stroke-width="1" opacity="0.5"/>
    <line x1="-20" y1="-4" x2="15" y2="-4" stroke="#f59e0b" stroke-width="1" opacity="0.5"/>
    <line x1="-20" y1="4" x2="20" y2="4" stroke="#f59e0b" stroke-width="1" opacity="0.5"/>
    <line x1="-20" y1="12" x2="10" y2="12" stroke="#f59e0b" stroke-width="1" opacity="0.5"/>
    <polygon points="15,8 25,8 20,15" fill="#f59e0b" opacity="0.8"/>
  </g>
  <text x="200" y="160" text-anchor="middle" font-family="system-ui,sans-serif" font-size="16" font-weight="600" fill="#e5e5e5">Terraphim Skills</text>
  <text x="200" y="180" text-anchor="middle" font-family="system-ui,sans-serif" font-size="11" fill="#a3a3a3">42 skills for AI coding agents</text>
  <g transform="translate(100,210)" fill="#f59e0b" opacity="0.3">
    <rect x="0" y="0" width="16" height="10" rx="2"/>
    <rect x="22" y="0" width="16" height="10" rx="2"/>
    <rect x="44" y="0" width="16" height="10" rx="2"/>
    <rect x="66" y="0" width="16" height="10" rx="2"/>
    <rect x="88" y="0" width="16" height="10" rx="2"/>
    <rect x="110" y="0" width="16" height="10" rx="2"/>
    <rect x="132" y="0" width="16" height="10" rx="2"/>
    <rect x="154" y="0" width="16" height="10" rx="2"/>
    <rect x="176" y="0" width="16" height="10" rx="2"/>
    <rect x="198" y="0" width="16" height="10" rx="2"/>
  </g>
</svg>
